<svg xmlns="http://www.w3.org/2000/svg" width="256" height="256" viewBox="0 0 256 256" fill="none">
  <defs>
    <linearGradient id="deepTeal" x1="0" y1="0" x2="1" y2="1">
      <stop offset="0" stop-color="#00484f"/>
      <stop offset="1" stop-color="#0a5e63"/>
    </linearGradient>
    <linearGradient id="softTeal" x1="0" y1="0" x2="1" y2="1">
      <stop offset="0" stop-color="#2a6f73"/>
      <stop offset="1" stop-color="#4f8f92"/>
    </linearGradient>
  </defs>

  <path d="M0 88c38 18 89 24 132 17c48-8 88-36 124-95c-16 61-52 107-101 134c-54 30-112 32-155 7z" fill="url(#deepTeal)"/>
  <path d="M0 88c34 16 81 22 120 17c42-5 77-24 112-60c-17 39-45 68-81 87c-50 26-102 26-141 4z" fill="url(#softTeal)" opacity="0.95"/>

  <path d="M86 188c40-41 85-62 133-62c14 0 26 1 37 4c-32-4-64 1-95 15c-31 14-58 37-81 69z" fill="url(#deepTeal)"/>
  <path d="M86 188c36-34 77-51 121-51c12 0 23 1 33 3c-28 1-56 10-83 26c-27 15-50 37-68 64z" fill="url(#softTeal)" opacity="0.95"/>
</svg>
